<svg height="632" width="655" viewBox="733 -4 655 632" style="background-color:transparent;" preserveAspectRatio="xMinYMin meet" xmlns:xlink="http://www.w3.org/1999/xlink" xmlns="http://www.w3.org/2000/svg"><defs><style type="text/css">.svg-txt-center tspan {text-anchor: middle;}.svg-txt-right tspan {text-anchor: end;}</style></defs><g transform="translate(0,0)"><g transform="matrix(1,0,0,1,825,151)"><path style="fill:none;stroke:#333333;stroke-width:3.0;;" d="m14.190753931198135,3.89417399977717c5.29719756786198,-6.400184924071554 14.67927161746068,-4.132183734995935 16.737702323112334,1.198708883139804c2.057068408692256,5.329141115587113 -1.2347919741327575,13.993337695151306 -9.877620587158376,13.19387408740095c-8.642833621470322,-0.7995609134475014 -11.935374151086096,-8.263589024414703 -6.8600817359539565,-14.392582970540754z"/><path style="fill:none;stroke:#333333;stroke-width:3.0;;" d="m9.800449469475254,50.00160284106687l-9.739440602850882,-0.4001210266637612c0,0 -0.13614154731309988,-17.856179260447508 0,-20.654496498968047c0.13681969072597708,-2.7984145442176818 2.88139830558026,-3.9979991786317983 5.76211546268082,-3.9979991786317983c2.8807181587895014,0 29.355127475633452,-1.3336718850811067 31.55176120443824,-0.9342319982973665c2.1959325465462722,0.4006075551494905 5.212098082212945,1.8679774681090038 5.350291088476668,5.730916339102354c0.13817297248490934,3.8643011507533918 0.2743225333095351,20.38953308563988 0.2743225333095351,20.38953308563988l-9.053985862395242,0.534986722907918"/><path style="fill:none;stroke:#333333;stroke-width:3.0;;" d="m10.075314918190667,36.00836245161272l0.1361395439352184,17.591605069907928l24.008922276346038,0.39953719248088604l-1.2347819572433503,-18.92089819861747"/></g><text style="font-weight:bold; font-size: 12px; text-anchor: middle; font-family: arial,helvetica,sans-serif; fill: #333333;" class="svg-txt-center" y="220" x="846">Seller</text></g><g transform="translate(0,0)"><g transform="matrix(1,0,0,1,791,325)"><path style="fill:none;stroke:#333333;stroke-width:2px;;stroke-width: 2px;" d="m0,3.2243991203686946c-0.4875417562797071,-2.8178005779135598 -0.11373658269102883,-3.2706097025614946 2.662715359824444,-3.2539769092817488c31.714754092845045,-0.5754436574825373 72.82203247265953,0.4398820832388055 105.47235257577357,0.06631572242883128c3.138770984943914,0.3269356497713776 2.8580924966978767,-0.3009810232977155 3.0716259717115557,2.066725108663827c-0.06873005590664402,5.336038516239573 0.6351678541217721,15.265582699333518 0.014504226115384534,20.52112883773225c0.08144079537961724,2.0234949276847987 0.09383452631773323,1.458421630088251 -2.92700494107663,1.7081146165952477c-30.472966523069324,1.1233060357807638 -77.45739206549898,-0.7195227156769507 -106.3924068807479,-0.06744683855213006c-2.229503655320059,-0.1093089076486925 -2.127361768355999,-1.3665534558073753 -1.913250729847306,-3.042741870966911c0.10722705126978291,-2.61161785828279 -0.7015225173083217,-15.426635681067085 0.011464418246890769,-17.998118666619366z"/><path style="fill:none;stroke:#333333;stroke-width:4px;;stroke-width: 4px; stroke-linecap: round;" d="m112.90714940119697,1.8137069998388156c0.5150303045762292,6.14670764638539 -0.2284241909866293,16.723296932989104 -0.16390644026918377,22.518949224840583c0.39119287459646257,1.6117471137350277 0.07546974420936162,1.5903815869616063 -1.5942011811355392,1.4636570818589485c-34.93786237580898,0.6715777554284259 -76.48477079731303,-1.2026206165154414 -109.90829208727449,-0.2573845761454282"/></g><text style="font-weight:bold; font-size: 12px; text-anchor: middle; font-family: arial,helvetica,sans-serif; fill: #333333;" class="svg-txt-center" y="341" x="846">Start Trading!</text></g><g transform="translate(0,0)"><g transform="matrix(1,0,0,1,960,211)"><path style="fill:none;stroke:#333333;stroke-width:3.0;;" d="m3.7850130969866616,9.828278671251006c58.372397666340845,-3.4063356165453635 127.88450630602372,-19.49169738449819 183.40956889913684,1.6730815418947664c11.380604612269174,10.653119227495868 5.421524871415153,36.01166313597056 7.489521307680665,53.87263080616316c0.9796175711050331,84.66474459037619 3.2394263695170538,151.4437200050244 2.30305248765485,236.6598986639644c0.9302464850140097,18.594000869475437 1.3452120161589392,51.251782712798075 -14.387500411530267,48.425148490253335c-60.214715452474564,4.405057094650824 -119.60260494241342,0.7916571742103949 -177.94695320764177,2.769509644879486c-5.855203803745108,-17.2611350244244 -3.3583102887710363,-45.92641524277508 -3.979620048911908,-71.83786803679294c2.6688332386940052,-91.85912303799522 1.720597875770939,-168.77055812587705 2.406348806142987,-252.38673242424707c-0.8935856072499835,-7.455470213522809 -1.4460242548437545,-14.445316126394593 0.7055821674685683,-19.175668686115134z"/><path style="fill:none;stroke:#333333;stroke-width:3.0;;" d="m3.2152893940947758,51.27616635352267c64.41651573912858,6.043849141776642 133.16758512973374,-15.399399810592952 189.814416760697,0.00004916056597698606"/><path style="fill:none;stroke:#333333;stroke-width:3.0;;" d="m21.920513816434095,71.90334991067428c-0.27670578942503604,8.141702553995557 -5.240083542447513,27.85290186558099 5.21135101938909,26.85351671983484c48.99834991653503,4.60297753327417 100.08717719155561,1.8057413291836633 145.78190797632274,-3.2369774667546465c4.373243194413297,-5.464270649190966 2.4340462959500266,-24.2349300125047 2.4340462959500266,-24.2349300125047c-44.403692408985634,-8.960791324021109 -116.18380731043149,3.1251371791570035 -153.42730529166187,0.6183907594245076z"/><path style="fill:none;stroke:#333333;stroke-width:3.0;;" d="m22.789072319665607,108.00089655540664c48.78614739933625,7.381139437765606 110.53180123459812,-8.450037623803214 149.69352634061872,3.5047304893483013c0,0 1.366699306457674,28.796710991490155 -12.021165990885791,22.27907689511031c-46.21620123747948,-5.480788599359233 -95.33113729945042,5.304670871746681 -138.15903298453375,1.6986696164857875c-8.221703829709805,-5.76415010165058 6.026315500863934,-18.5430213625573 0.4866726348008227,-27.4824770009444z"/><path style="fill:none;stroke:#333333;stroke-width:3.0;;" d="m20.891980573868647,153.23953089988072c-0.12586004336831144,7.334707283200342 0.234807643409006,20.633033664502886 0.234807643409006,20.633033664502886c-1.0585078055255324,8.35712415410671 13.889587315619412,3.5999053450797462 19.055169164632293,2.996877262523047c33.99782001087495,-0.8196049559683115 73.22028086808679,-2.1978214231331155 105.60392512209812,-0.24408221007573577c11.530746535714956,0.6311970868615125 23.23537865766245,4.242286460701023 23.672183390411586,-6.463729535786081c0.5690405809459725,-8.26595588450239 5.216898797616509,-23.666240585282925 -6.898538021805349,-19.152464898974c-46.35750397695845,2.4806421591987164 -95.3265624524793,-3.5930720264089455 -138.38011608702942,-3.067250612719102c0,0 -3.639653027162273,0.2788387302214649 -3.28743121171625,5.2976163305289825z"/><path style="fill:none;stroke:#333333;stroke-width:3.0;;" d="m20.04996032320262,194.8958348016118c-0.38853078190457846,3.6930646176061352 -0.43754995669013136,6.335445038869135 0.13765942243409063,13.551060850990229c-1.7195628425195548,12.256515667118256 12.52205998256063,7.462377273042575 20.129409475578868,7.807115741956189c37.7333171171154,0.7503377185067381 72.93310054215773,6.140105529959581 107.80219084338285,2.2305377797908c6.7475887724234855,-2.2343723039370045 21.16224845647007,5.731605806973815 20.168989147111795,-6.778430898887756c-0.4627426660288213,-7.090059726615872 1.2683711475761807,-19.362110132582853 -2.4267182605302273,-23.012380477506024c-15.956590119963595,4.49155511048733 -130.0226986973981,0.8962708586094212 -140.0048698837222,0.05211019993560522c0,0 -6.3572777333265265,-0.8890196751278158 -5.8065572409300525,6.149937643154979z"/><path style="fill:none;stroke:#333333;stroke-width:3.0;;" d="m23.94876497584645,245.2559431687193c0.9053435849857073,6.8578989537895545 0.004140133005536561,6.5647790791517755 0.26107678732913553,11.71493829203279c0.15028682810097713,3.021555866643494 5.321809767976805,1.1539459651777937 9.193165338793932,-0.5773416868337242c0.16519130692090875,-5.583706244232053 0.3737091057447576,-6.5121526932734115 0.10101924533509207,-10.909442418499873c-3.310595255882227,-0.6948600198017094 -5.724872416730817,-1.2992400179227759 -9.55534417411827,-0.2281050261332153z"/><path style="fill:none;stroke:#333333;stroke-width:3.0;;" d="m26.179510040559606,247.2077159591376c2.4165128326715792,5.632965131340993 2.179635122759805,12.43634501746207 4.140795426817446,1.741562210300708c1.0319488522950153,-2.237518580159532 1.7882683497464342,-6.362974955816247 3.725581487692184,-7.596905161838598"/><path style="fill:none;stroke:#333333;stroke-width:3.0;;" d="m42.26446498435986,254.17834009071237c3.0579229385543307,-6.5361676297531695 8.113004637649443,-8.545064997836727 11.80391251142026,-1.9138454137670557c5.199758646973588,-4.540469873634432 10.396743404833465,-3.3525785376495296 15.831061287235727,-1.5626423304274673c6.90772911707764,-4.779832669376377 12.561846660743836,4.560748607099939 19.43703433239796,-2.6930403845022846c1.7271599865847145,12.586014360579005 12.629061720088723,-7.453307148619822 17.58896176138655,2.2545527162705574c8.102861311785878,0.43487436663241863 17.322523501815244,-3.736006371987032 24.523270532359735,-2.9765002079255862c-1.3784572841933977,9.441409597295115 10.314416860018369,-6.557159191425343 14.775472275479096,-2.433054731332994c5.231782575771413,3.5131615264133544 23.320292785606004,2.0096839371391897 20.493244364105422,2.6327449503315115"/><path style="fill:none;stroke:#333333;stroke-width:3.0;;" d="m22.539857013397334,265.8890014135052c0.044299423159241194,6.906125469012977 0.20224549732046096,11.699772257428888 7.282887269374336,9.035908668833944c5.122131153119777,0.6086323870780759 5.559598307149797,-2.2763800075643394 5.343110752290291,-5.7798323221972385c-0.21646685419447903,-3.5034523146329 0.08714979976654459,-6.649458154047134 -5.624908905312137,-6.144579141463487c-2.405769187522212,0.47058951781469904 -5.043510027344637,1.0397213901302664 -7.00108911635249,2.888502794826781z"/><path style="fill:none;stroke:#333333;stroke-width:3.0;;" d="m26.179530741224635,266.1678401437266c1.3062326639118123,4.436470696310118 1.6417904440105506,10.815152452956013 4.924025788804853,2.262246344845956c1.8615694046094589,-3.4814775416411865 1.9687988494528559,-5.961062748671398 3.88160240000583,-9.232895056703727"/><path style="fill:none;stroke:#333333;stroke-width:3.0;;" d="m42.26446498435986,268.1196129341449c6.8647752371451976,-8.055179957876062 9.575154710549763,11.776143196674136 17.2702957239504,2.278543072467327c6.168446266944004,-3.8640204857911042 13.577483388997038,0.8272494239777328 20.15100026920274,-3.03025728682142c5.773291272230567,4.70491196682745 12.189814308866321,-3.068676269132435 17.035902093841948,1.6874610074430347c6.44631129361059,-0.19860868654702366 16.547428501183717,-13.566054823613209 17.39677678726954,0.17943606581599908c8.727628082986373,-2.672417527074939 16.83156582935369,-7.259565358104519 25.93638072980947,-5.567556998308613c3.8214255667703556,-3.327629550416209 4.689963369336843,-1.3744556838675646 6.222744111311616,0.6180466354626687c5.349776366429205,-3.0267668866370543 20.990971154031026,0.7993999633517702 17.622062124765815,3.834204602526062"/></g></g><g transform="translate(0,0)"><rect style="fill: #000000;fill-opacity: 0;stroke-opacity:0;stroke-width: 1;stroke:%stroke%;" rx="4" height="34" width="100" y="279" x="1032"/><text style="font-weight:Normal; font-size: 12px; text-anchor: start; font-family: arial,helvetica,sans-serif; fill: #333333;" class="" y="300" x="1032"><tspan font-style="italic" x="1032">wholesale</tspan></text></g><g transform="translate(0,0)"><rect style="fill: #000000;fill-opacity: 0;stroke-opacity:0;stroke-width: 1;stroke:%stroke%;" rx="4" height="34" width="100" y="316" x="1032"/><text style="font-weight:Normal; font-size: 12px; text-anchor: start; font-family: arial,helvetica,sans-serif; fill: #333333;" class="" y="337" x="1032"><tspan font-style="italic" x="1032">retail</tspan></text></g><g transform="translate(0,0)"><rect style="fill: #000000;fill-opacity: 0;stroke-opacity:0;stroke-width: 1;stroke:%stroke%;" rx="4" height="34" width="100" y="356" x="1032"/><text style="font-weight:Normal; font-size: 12px; text-anchor: start; font-family: arial,helvetica,sans-serif; fill: #333333;" class="" y="377" x="1032"><tspan font-style="italic" x="1032">domestic trade</tspan></text></g><g transform="translate(0,0)"><rect style="fill: #000000;fill-opacity: 0;stroke-opacity:0;stroke-width: 1;stroke:%stroke%;" rx="4" height="34" width="100" y="396" x="1032"/><text style="font-weight:Normal; font-size: 12px; text-anchor: start; font-family: arial,helvetica,sans-serif; fill: #333333;" class="" y="417" x="1032"><tspan x="1032">foreign trade</tspan></text></g><g transform="translate(0,0)"><g transform="matrix(1,0,0,1,995,283)"><path style="fill:#333333;stroke:none;stroke-width:3.0;;stroke: none;" d="m12.89875,3.09771c-0.4685,0 -0.9445,0.030240000000000003 -1.42075,0.09018000000000001c-0.2235,0.030780000000000002 -0.44575,0.06669 -0.66,0.10638000000000002c-0.138,0.02295 -0.265,0.06696 -0.3795,0.13041c-4.48675,0.64503 -7.9215,4.27707 -8.56175,9.07092c-0.7845,5.87331 3.33525,11.40777 9.18325,12.337110000000001c0.51425,0.08181000000000001 1.0435,0.12312000000000001 1.573,0.12312000000000001c0.00025,0 0,0 0.0005,0c5.3685,0 10.032,-3.9422700000000006 10.8475,-9.169740000000001c0.47,-3.0123900000000003 -0.54525,-6.318 -2.78525,-9.06957c-1.9,-2.33361 -4.66925,-3.6188100000000003 -7.797,-3.6188100000000003zm0.62925,2.69595c2.087,0.15903 3.89875,1.0929600000000002 5.38825,2.7782999999999998c1.75225,1.9826100000000002 2.534,4.76982 2.04,7.2738000000000005c-0.62825,3.1873500000000003 -3.7315,6.41385 -8.44625,6.41385c-0.54725,0 -1.086,-0.051570000000000005 -1.601,-0.15363c-4.334,-0.85887 -7.2645,-5.177250000000001 -6.5325,-9.626850000000001c0.628,-3.81591 3.73725,-6.480810000000001 7.562,-6.480810000000001c0.258,0 0.52025,0.01242 0.779,0.03726000000000001c0.3185,0.030239460000000003 0.5915,-0.05697054 0.8105,-0.24192027000000002z"/></g></g><g transform="translate(0,0)"><g transform="matrix(1,0,0,1,995,320)"><path style="fill:#333333;stroke:none;stroke-width:3.0;;stroke: none;" d="m12.89875,3.09771c-0.4685,0 -0.9445,0.030240000000000003 -1.42075,0.09018000000000001c-0.2235,0.030780000000000002 -0.44575,0.06669 -0.66,0.10638000000000002c-0.138,0.02295 -0.265,0.06696 -0.3795,0.13041c-4.48675,0.64503 -7.9215,4.27707 -8.56175,9.07092c-0.7845,5.87331 3.33525,11.40777 9.18325,12.337110000000001c0.51425,0.08181000000000001 1.0435,0.12312000000000001 1.573,0.12312000000000001c0.00025,0 0,0 0.0005,0c5.3685,0 10.032,-3.9422700000000006 10.8475,-9.169740000000001c0.47,-3.0123900000000003 -0.54525,-6.318 -2.78525,-9.06957c-1.9,-2.33361 -4.66925,-3.6188100000000003 -7.797,-3.6188100000000003zm0.62925,2.69595c2.087,0.15903 3.89875,1.0929600000000002 5.38825,2.7782999999999998c1.75225,1.9826100000000002 2.534,4.76982 2.04,7.2738000000000005c-0.62825,3.1873500000000003 -3.7315,6.41385 -8.44625,6.41385c-0.54725,0 -1.086,-0.051570000000000005 -1.601,-0.15363c-4.334,-0.85887 -7.2645,-5.177250000000001 -6.5325,-9.626850000000001c0.628,-3.81591 3.73725,-6.480810000000001 7.562,-6.480810000000001c0.258,0 0.52025,0.01242 0.779,0.03726000000000001c0.3185,0.030239460000000003 0.5915,-0.05697054 0.8105,-0.24192027000000002z"/></g></g><g transform="translate(0,0)"><g transform="matrix(1,0,0,1,995,360)"><path style="fill:#333333;stroke:none;stroke-width:3.0;;stroke: none;" d="m12.89875,3.09771c-0.4685,0 -0.9445,0.030240000000000003 -1.42075,0.09018000000000001c-0.2235,0.030780000000000002 -0.44575,0.06669 -0.66,0.10638000000000002c-0.138,0.02295 -0.265,0.06696 -0.3795,0.13041c-4.48675,0.64503 -7.9215,4.27707 -8.56175,9.07092c-0.7845,5.87331 3.33525,11.40777 9.18325,12.337110000000001c0.51425,0.08181000000000001 1.0435,0.12312000000000001 1.573,0.12312000000000001c0.00025,0 0,0 0.0005,0c5.3685,0 10.032,-3.9422700000000006 10.8475,-9.169740000000001c0.47,-3.0123900000000003 -0.54525,-6.318 -2.78525,-9.06957c-1.9,-2.33361 -4.66925,-3.6188100000000003 -7.797,-3.6188100000000003zm0.62925,2.69595c2.087,0.15903 3.89875,1.0929600000000002 5.38825,2.7782999999999998c1.75225,1.9826100000000002 2.534,4.76982 2.04,7.2738000000000005c-0.62825,3.1873500000000003 -3.7315,6.41385 -8.44625,6.41385c-0.54725,0 -1.086,-0.051570000000000005 -1.601,-0.15363c-4.334,-0.85887 -7.2645,-5.177250000000001 -6.5325,-9.626850000000001c0.628,-3.81591 3.73725,-6.480810000000001 7.562,-6.480810000000001c0.258,0 0.52025,0.01242 0.779,0.03726000000000001c0.3185,0.030239460000000003 0.5915,-0.05697054 0.8105,-0.24192027000000002z"/></g></g><g transform="translate(0,0)"><g transform="matrix(1,0,0,1,995,400)"><path style="fill:#333333;stroke:none;stroke-width:3.0;;stroke: none;" d="m12.89875,3.09771c-0.4685,0 -0.9445,0.030240000000000003 -1.42075,0.09018000000000001c-0.2235,0.030780000000000002 -0.44575,0.06669 -0.66,0.10638000000000002c-0.138,0.02295 -0.265,0.06696 -0.3795,0.13041c-4.48675,0.64503 -7.9215,4.27707 -8.56175,9.07092c-0.7845,5.87331 3.33525,11.40777 9.18325,12.337110000000001c0.51425,0.08181000000000001 1.0435,0.12312000000000001 1.573,0.12312000000000001c0.00025,0 0,0 0.0005,0c5.3685,0 10.032,-3.9422700000000006 10.8475,-9.169740000000001c0.47,-3.0123900000000003 -0.54525,-6.318 -2.78525,-9.06957c-1.9,-2.33361 -4.66925,-3.6188100000000003 -7.797,-3.6188100000000003zm0.62925,2.69595c2.087,0.15903 3.89875,1.0929600000000002 5.38825,2.7782999999999998c1.75225,1.9826100000000002 2.534,4.76982 2.04,7.2738000000000005c-0.62825,3.1873500000000003 -3.7315,6.41385 -8.44625,6.41385c-0.54725,0 -1.086,-0.051570000000000005 -1.601,-0.15363c-4.334,-0.85887 -7.2645,-5.177250000000001 -6.5325,-9.626850000000001c0.628,-3.81591 3.73725,-6.480810000000001 7.562,-6.480810000000001c0.258,0 0.52025,0.01242 0.779,0.03726000000000001c0.3185,0.030239460000000003 0.5915,-0.05697054 0.8105,-0.24192027000000002z"/></g></g><g transform="translate(0,0)"><g transform="matrix(1,0,0,1,1005,511)"><path style="fill:none;stroke:#333333;stroke-width:2px;;stroke-width: 2px;" d="m0,3.2243991203686946c-0.4875417562797071,-2.8178005779135598 -0.11373658269102883,-3.2706097025614946 2.662715359824444,-3.2539769092817488c31.714754092845045,-0.5754436574825373 72.82203247265953,0.4398820832388055 105.47235257577357,0.06631572242883128c3.138770984943914,0.3269356497713776 2.8580924966978767,-0.3009810232977155 3.0716259717115557,2.066725108663827c-0.06873005590664402,5.336038516239573 0.6351678541217721,15.265582699333518 0.014504226115384534,20.52112883773225c0.08144079537961724,2.0234949276847987 0.09383452631773323,1.458421630088251 -2.92700494107663,1.7081146165952477c-30.472966523069324,1.1233060357807638 -77.45739206549898,-0.7195227156769507 -106.3924068807479,-0.06744683855213006c-2.229503655320059,-0.1093089076486925 -2.127361768355999,-1.3665534558073753 -1.913250729847306,-3.042741870966911c0.10722705126978291,-2.61161785828279 -0.7015225173083217,-15.426635681067085 0.011464418246890769,-17.998118666619366z"/><path style="fill:none;stroke:#333333;stroke-width:4px;;stroke-width: 4px; stroke-linecap: round;" d="m112.90714940119697,1.8137069998388156c0.5150303045762292,6.14670764638539 -0.2284241909866293,16.723296932989104 -0.16390644026918377,22.518949224840583c0.39119287459646257,1.6117471137350277 0.07546974420936162,1.5903815869616063 -1.5942011811355392,1.4636570818589485c-34.93786237580898,0.6715777554284259 -76.48477079731303,-1.2026206165154414 -109.90829208727449,-0.2573845761454282"/></g><text style="font-weight:bold; font-size: 12px; text-anchor: middle; font-family: arial,helvetica,sans-serif; fill: #333333;" class="svg-txt-center" y="527" x="1060">Start Trading!</text></g><g transform="translate(0,0)"><g transform="matrix(1,0,0,1,826,378)"><path style="fill:none;stroke:#333333;stroke-width:3.0;;" d="m14.190753931198135,3.89417399977717c5.29719756786198,-6.400184924071554 14.67927161746068,-4.132183734995935 16.737702323112334,1.198708883139804c2.057068408692256,5.329141115587113 -1.2347919741327575,13.993337695151306 -9.877620587158376,13.19387408740095c-8.642833621470322,-0.7995609134475014 -11.935374151086096,-8.263589024414703 -6.8600817359539565,-14.392582970540754z"/><path style="fill:none;stroke:#333333;stroke-width:3.0;;" d="m9.800449469475254,50.00160284106687l-9.739440602850882,-0.4001210266637612c0,0 -0.13614154731309988,-17.856179260447508 0,-20.654496498968047c0.13681969072597708,-2.7984145442176818 2.88139830558026,-3.9979991786317983 5.76211546268082,-3.9979991786317983c2.8807181587895014,0 29.355127475633452,-1.3336718850811067 31.55176120443824,-0.9342319982973665c2.1959325465462722,0.4006075551494905 5.212098082212945,1.8679774681090038 5.350291088476668,5.730916339102354c0.13817297248490934,3.8643011507533918 0.2743225333095351,20.38953308563988 0.2743225333095351,20.38953308563988l-9.053985862395242,0.534986722907918"/><path style="fill:none;stroke:#333333;stroke-width:3.0;;" d="m10.075314918190667,36.00836245161272l0.1361395439352184,17.591605069907928l24.008922276346038,0.39953719248088604l-1.2347819572433503,-18.92089819861747"/></g></g><g transform="translate(0,0)"><g transform="matrix(1,0,0,1,749,430)"><path style="fill:none;stroke:#333333;stroke-width:3.0;;" d="m0.7042881066666667,5.320701752509506c1.29926048,49.04309565956133 -1.8819501866666668,103.64334601806218 1.3248241066666666,150.50022052481313c-1.3771757066666666,12.536162746013325 10.321140479999999,9.350683921055706 16.555117786666667,8.61797084320468c52.11680898666666,-0.03075429188729971 109.96681005333332,-4.8534552834658715 157.68219992,-2.3548117421727635c5.772291466666667,-0.7861684759149316 15.971648,3.431687540061562 17.0643088,-6.685539179921201c4.371871466666667,-47.53732114112136 0.6082010666666666,-98.03559892369528 0.85456,-140.5112059112721c0.9958890666666665,-8.695043635110697 -1.0726034666666666,-15.218401483509723 -9.587287733333334,-13.818645252623723c-59.54191226666667,-2.0148499949958856 -125.88072559999999,4.199706227944653 -179.83631773333335,0.7358915497703072c-3.4777704266666665,-0.703222248367551 -4.28368192,1.2504520701370514 -4.0574051466666665,3.516119168201643z"/><path style="fill:none;stroke:#333333;stroke-width:3.0;;" d="m0.5110752266666667,45.87327774437457c70.56143602666667,3.977802915068342 130.95372696,-4.518502998266513 195.14368776,0"/><path style="fill:none;stroke:#333333;stroke-width:3.0;;" d="m22.89878192,96.60061634641609c52.613782666666665,-1.902549271423911 99.74579813333334,0.4980134431131548 147.54336426666666,-0.5622328433376141c9.397873333333333,1.4393642712367343 4.863374133333333,-14.320006791843367 5.505038933333334,-20.74633801988352c-0.5626637333333333,-11.32515701840368 -3.2662877333333333,-6.890071073699522 -10.102022933333332,-7.291414582828783c-27.814294666666665,-1.3426626317972867 -93.56644080000001,4.44539021775918 -137.65498394666668,2.979567743862702c-1.93277952,-0.3164362991558709 -6.636503813333333,-0.9075845179586575 -6.619040213333332,2.1780379747318976c0.16900688000000003,7.60182684542941 -1.9453182933333333,17.721399769123163 1.3276438933333334,23.442379727455318z"/><path style="fill:none;stroke:#333333;stroke-width:3.0;;" d="m26.78785050666667,78.2215661654658c-4.820089493333334,11.182403204772168 5.096167253333333,12.027543828017384 11.909698266666668,11.312887007104313c4.816502693333334,-3.638755870284195 1.4956485599999998,-16.759028223967338 -5.90538984,-12.297563340242322c-2.023193013333333,0.0013157764054875648 -4.072638266666666,0.2056574374504841 -6.004308426666666,0.9846763331380073z"/></g></g><g transform="translate(0,0)"><rect style="fill: #000000;fill-opacity: 0;stroke-opacity:0;stroke-width: 1;stroke:%stroke%;" rx="4" height="37" width="100" y="473" x="773"/><text style="font-weight:Normal; font-size: 12px; text-anchor: start; font-family: arial,helvetica,sans-serif; fill: #333333;" class="" y="494" x="773"><tspan font-weight="bold" x="773">I want to buy</tspan></text></g><g transform="translate(0,0)"><rect style="fill: #000000;fill-opacity: 0;stroke-opacity:0;stroke-width: 1;stroke:%stroke%;" rx="4" height="37" width="120" y="495" x="803"/><text style="font-weight:Normal; font-size: 12px; text-anchor: start; font-family: arial,helvetica,sans-serif; fill: #333333;" class="" y="516" x="803"><tspan font-style="italic" x="803">name your product</tspan></text></g><g transform="translate(0,0)"><rect style="fill: #000000;fill-opacity: 0;stroke-opacity:0;stroke-width: 1;stroke:%stroke%;" rx="4" height="37" width="93" y="520" x="844"/><text style="font-weight:Normal; font-size: 12px; text-anchor: start; font-family: arial,helvetica,sans-serif; fill: #333333;" class="" y="541" x="844"><tspan font-weight="bold" x="844">.4money.trade</tspan></text></g><g transform="translate(0,0)"><g transform="matrix(1,0,0,1,792,551)"><path style="fill:none;stroke:#333333;stroke-width:2px;;stroke-width: 2px;" d="m0,3.2243991203686946c-0.4875417562797071,-2.8178005779135598 -0.11373658269102883,-3.2706097025614946 2.662715359824444,-3.2539769092817488c31.714754092845045,-0.5754436574825373 72.82203247265953,0.4398820832388055 105.47235257577357,0.06631572242883128c3.138770984943914,0.3269356497713776 2.8580924966978767,-0.3009810232977155 3.0716259717115557,2.066725108663827c-0.06873005590664402,5.336038516239573 0.6351678541217721,15.265582699333518 0.014504226115384534,20.52112883773225c0.08144079537961724,2.0234949276847987 0.09383452631773323,1.458421630088251 -2.92700494107663,1.7081146165952477c-30.472966523069324,1.1233060357807638 -77.45739206549898,-0.7195227156769507 -106.3924068807479,-0.06744683855213006c-2.229503655320059,-0.1093089076486925 -2.127361768355999,-1.3665534558073753 -1.913250729847306,-3.042741870966911c0.10722705126978291,-2.61161785828279 -0.7015225173083217,-15.426635681067085 0.011464418246890769,-17.998118666619366z"/><path style="fill:none;stroke:#333333;stroke-width:4px;;stroke-width: 4px; stroke-linecap: round;" d="m112.90714940119697,1.8137069998388156c0.5150303045762292,6.14670764638539 -0.2284241909866293,16.723296932989104 -0.16390644026918377,22.518949224840583c0.39119287459646257,1.6117471137350277 0.07546974420936162,1.5903815869616063 -1.5942011811355392,1.4636570818589485c-34.93786237580898,0.6715777554284259 -76.48477079731303,-1.2026206165154414 -109.90829208727449,-0.2573845761454282"/></g><text style="font-weight:bold; font-size: 12px; text-anchor: middle; font-family: arial,helvetica,sans-serif; fill: #333333;" class="svg-txt-center" y="567" x="847">Start Trading!</text></g><g transform="translate(0,0)"><g transform="matrix(1,0,0,1,748,204)"><path style="fill:none;stroke:#333333;stroke-width:3.0;;" d="m0.7042881066666667,5.320701752509506c1.29926048,49.04309565956133 -1.8819501866666668,103.64334601806218 1.3248241066666666,150.50022052481313c-1.3771757066666666,12.536162746013325 10.321140479999999,9.350683921055706 16.555117786666667,8.61797084320468c52.11680898666666,-0.03075429188729971 109.96681005333332,-4.8534552834658715 157.68219992,-2.3548117421727635c5.772291466666667,-0.7861684759149316 15.971648,3.431687540061562 17.0643088,-6.685539179921201c4.371871466666667,-47.53732114112136 0.6082010666666666,-98.03559892369528 0.85456,-140.5112059112721c0.9958890666666665,-8.695043635110697 -1.0726034666666666,-15.218401483509723 -9.587287733333334,-13.818645252623723c-59.54191226666667,-2.0148499949958856 -125.88072559999999,4.199706227944653 -179.83631773333335,0.7358915497703072c-3.4777704266666665,-0.703222248367551 -4.28368192,1.2504520701370514 -4.0574051466666665,3.516119168201643z"/><path style="fill:none;stroke:#333333;stroke-width:3.0;;" d="m0.5110752266666667,45.87327774437457c70.56143602666667,3.977802915068342 130.95372696,-4.518502998266513 195.14368776,0"/><path style="fill:none;stroke:#333333;stroke-width:3.0;;" d="m22.89878192,96.60061634641609c52.613782666666665,-1.902549271423911 99.74579813333334,0.4980134431131548 147.54336426666666,-0.5622328433376141c9.397873333333333,1.4393642712367343 4.863374133333333,-14.320006791843367 5.505038933333334,-20.74633801988352c-0.5626637333333333,-11.32515701840368 -3.2662877333333333,-6.890071073699522 -10.102022933333332,-7.291414582828783c-27.814294666666665,-1.3426626317972867 -93.56644080000001,4.44539021775918 -137.65498394666668,2.979567743862702c-1.93277952,-0.3164362991558709 -6.636503813333333,-0.9075845179586575 -6.619040213333332,2.1780379747318976c0.16900688000000003,7.60182684542941 -1.9453182933333333,17.721399769123163 1.3276438933333334,23.442379727455318z"/><path style="fill:none;stroke:#333333;stroke-width:3.0;;" d="m26.78785050666667,78.2215661654658c-4.820089493333334,11.182403204772168 5.096167253333333,12.027543828017384 11.909698266666668,11.312887007104313c4.816502693333334,-3.638755870284195 1.4956485599999998,-16.759028223967338 -5.90538984,-12.297563340242322c-2.023193013333333,0.0013157764054875648 -4.072638266666666,0.2056574374504841 -6.004308426666666,0.9846763331380073z"/></g></g><g transform="translate(0,0)"><g transform="matrix(1,0,0,1,1177,286)"><path style="fill:none;stroke:#333333;stroke-width:3.0;;" d="m3.603472105396493,5.768387292631595c57.86480553129588,-1.9608540023959726 126.77245656548631,-11.220319884890278 181.81468812122026,0.9630623676996646c11.281647946262058,6.132437283784881 5.374376760510734,20.729953453613 7.424372677636651,31.011525956310976c0.9711121759460479,48.73681299545143 3.2112401680366687,87.17781538845819 2.2830398874318676,136.23207277841973c0.9221344157428096,10.703542093926627 1.3335066158766191,29.502827216328555 -14.262385249543069,27.875680082560955c-59.69112268163588,2.5357538308721437 -118.56257488100852,0.4557091640880794 -176.39959219354472,1.594262296753943c-5.804274439817651,-9.93628171405454 -3.329073691538183,-26.437317105466168 -3.945025381257318,-41.353087419553034c2.645639255229398,-52.878278084801146 1.7056761150611421,-97.151952903261 2.3854423425513582,-145.28516494025718c-0.8858007049309513,-4.291696160768491 -1.4334294438059034,-8.315365154741643 0.6994597955049908,-11.038351121935069z"/><path style="fill:none;stroke:#333333;stroke-width:3.0;;" d="m3.167652010734456,46.91494354018775c63.769638075430386,5.530635769215455 131.83030174269194,-14.091759972665212 187.90827972361086,0.00004498609714591109"/><path style="fill:none;stroke:#333333;stroke-width:3.0;;" d="m35.442663953533234,28.98312532905042c5.303881574276785,-3.9888947408793634 13.790047008988909,-9.109009880589806 13.60214864777406,2.135310087127816c9.109371570921613,5.876331432733209 20.682037581052366,-4.946221381192924 29.26681430534524,-0.5608191800695006c5.243858202044447,-2.22933103016277 13.515300217756769,-11.9129483295973 14.577994657446864,-1.5435854583190745c9.731225183209173,-0.2988876294374333 18.3187274481326,9.242528616918872 29.259252467054445,0.35788689584429567c10.86373854717225,-14.860887275568853 9.254317051221824,1.6934341479121042 16.94687882834792,-2.844605880827396c6.06959454916967,-1.7975544697563153 19.68885467383482,-1.5357353843671129 18.44594666794084,5.287148518413211"/><path style="fill:none;stroke:#333333;stroke-width:3.0;;" d="m21.68503653309726,65.79057006944629c-0.2739270797643037,7.450349985771492 -5.187462053057288,25.487773059958847 5.159018065123357,24.573250691079622c48.506303152512025,4.212115754917375 99.08209086229776,1.6524068273150332 144.3179501860086,-2.9621095665725155c4.329326610165824,-5.000272176913737 2.4096033380658426,-22.17702124050552 2.4096033380658426,-22.17702124050552c-43.95778569584668,-8.19988584336809 -115.01707686917477,2.859766195565568 -151.88657158919784,0.5658801159984157z"/><path style="fill:none;stroke:#333333;stroke-width:3.0;;" d="m31.143400261450317,78.05971831624491c-0.8238510107491984,-8.621000698750963 6.8967653913636076,-4.64580422445253 4.385927687019942,1.9645203693133644c11.82907175727005,4.949730296770305 -14.147154309951935,7.652877395122384 -7.271926837405734,-1.0017054251480022c0.9058631431062526,-0.5951210791432577 1.868122435199665,-0.7579707508114559 2.8859991503857927,-0.9628149441653621z"/><path style="fill:none;stroke:#333333;stroke-width:3.0;;" d="m22.544872877284487,98.82289400260017c48.29623159609219,6.754370076827102 109.42182885365547,-7.732502787070647 148.19028765285552,3.2071263446777203c0,0 1.352974763237739,26.35143864601462 -11.900448133331926,20.387249365555448c-45.75209311336766,-5.015387505554763 -94.37381164055108,4.854224812529536 -136.77162493474458,1.5544271077312388c-8.13914058480349,-5.274687369503794 5.965798584554858,-16.96844094075764 0.48178541522097545,-25.148802817964405z"/><path style="fill:none;stroke:#333333;stroke-width:3.0;;" d="m28.563850243315247,113.0842965476026c-1.5043549785604675,-10.692857895854472 10.801788852990498,-10.366573733255178 9.257104070212469,0.28347989116495875"/><path style="fill:none;stroke:#333333;stroke-width:3.0;;" d="m48.340434536995275,143.90406926482913c4.83162530486941,9.286075158956114 -7.3597179356110365,26.605924997569037 5.468377173084899,30.157982242113036c28.858270109775464,1.4826068036377917 62.03836646978605,-5.1861547303206414 87.3484335198839,0.16802307283997792c7.093967477738403,-4.660177282490649 3.54152241121474,-22.850755524411255 1.8686757404404546,-29.87942832858555c-29.254621097261168,-0.7024579069334017 -67.8506740819885,5.188021653352197 -94.68548643340927,-0.44668945161032414z"/><path style="fill:none;stroke:#333333;stroke-width:3.0;;" d="m28.302731155235893,120.76038676885227c2.3404401829671273,1.762847695808245 8.409440441322616,1.6707611549505648 9.526809635917415,0.000022493048572955546c-0.13258832992257383,-2.422726261793042 0.687532993647968,-5.174750754694153 0.5860117283564021,-7.237183364445593c-1.1999961105527293,-2.0667512750774475 -9.149598911205695,-1.4624755251649968 -9.753521335134328,-0.3208408448446379c0.7180877386115782,1.881768443613461 0.18238580159364873,4.751544045793994 -0.35930002913948805,7.558001716241657z"/><path style="fill:none;stroke:#333333;stroke-width:3.0;;" d="m59.21478834767602,169.42090334354424c3.2430244802020334,-4.5976016213606865 2.6590005521551356,-11.735658120745263 7.23110520630747,-15.293721009258237c4.837527227437834,2.9204299475668294 0.7230265002052938,10.397074307120107 3.1243302596592906,14.7330142944316c5.263879654646357,-1.9038566173121032 7.871484297768136,-10.743759664775071 12.475106857858789,-14.965524937530244c7.036198312042617,-2.4850994854858475 3.7644634376796056,8.244152162959667 4.88054158671256,11.726211040344623c6.116768944143669,2.4201395612071517 8.168404284205257,-7.427069680498484 12.475496220806011,-10.509269633402008c11.40948194967118,9.149384902778264 23.222118492011106,-7.555527480898632 20.237344109751,0.758465597880061c-2.023744657368448,4.587119860725689 1.123537523390268,12.107873088530532 5.745111764626543,6.506249258018829c3.846496062823356,-3.189401822402232 7.2003660262635965,-7.235091510928308 9.831906244246206,-11.641254795884569"/><path style="fill:none;stroke:#333333;stroke-width:3.0;;" d="m45.17882789833612,139.69730685547214c5.148423294401569,11.648227640942185 -7.842282076726456,33.373835889637064 5.8269189691166385,37.829483881453825c30.75043058376944,1.8597477490605376 66.10602068663172,-6.505394522173058 93.07561409615153,0.210984795614323c7.5590922573756,-5.845628421431125 3.773705684479464,-28.663431629683004 1.9911816193086382,-37.48005437187296c-31.172766424785564,-0.8811651778455335 -72.29943265301813,6.507733799224644 -100.89371468457679,-0.5603243330008956z"/></g></g><g transform="translate(0,0)"><rect style="fill: #000000;fill-opacity: 0;stroke-opacity:0;stroke-width: 1;stroke:%stroke%;" rx="4" height="35" width="100" y="247" x="772"/><text style="font-weight:Normal; font-size: 12px; text-anchor: start; font-family: arial,helvetica,sans-serif; fill: #333333;" class="" y="268" x="772"><tspan font-weight="bold" x="772">I want to give</tspan></text></g><g transform="translate(0,0)"><rect style="fill: #000000;fill-opacity: 0;stroke-opacity:0;stroke-width: 1;stroke:%stroke%;" rx="4" height="34" width="100" y="6" x="838"/><text style="font-weight:Normal; font-size: 12px; text-anchor: start; font-family: arial,helvetica,sans-serif; fill: #333333;" class="" y="27" x="838"><tspan x="838">foreign trade</tspan></text></g><g transform="translate(0,0)"><rect style="fill: #000000;fill-opacity: 0;stroke-opacity:0;stroke-width: 1;stroke:%stroke%;" rx="4" height="50" width="100" y="201" x="797"/><text style="font-weight:Normal; font-size: 12px; text-anchor: middle; font-family: arial,helvetica,sans-serif; fill: #333333;" class="svg-txt-center" y="222" x="847"><tspan x="847" font-weight="bold" font-size="24" dy="14">Seller</tspan></text></g><g transform="translate(0,0)"><rect style="fill: #000000;fill-opacity: 0;stroke-opacity:0;stroke-width: 1;stroke:%stroke%;" rx="4" height="50" width="100" y="425" x="796"/><text style="font-weight:Normal; font-size: 12px; text-anchor: middle; font-family: arial,helvetica,sans-serif; fill: #333333;" class="svg-txt-center" y="446" x="846"><tspan x="846" font-weight="bold" font-size="24" dy="14">Buyer</tspan></text></g><g transform="translate(0,0)"><rect style="fill: #000000;fill-opacity: 0;stroke-opacity:0;stroke-width: 1;stroke:%stroke%;" rx="4" height="37" width="120" y="269" x="802"/><text style="font-weight:Normal; font-size: 12px; text-anchor: start; font-family: arial,helvetica,sans-serif; fill: #333333;" class="" y="290" x="802"><tspan font-style="italic" x="802">name your product</tspan></text></g><g transform="translate(0,0)"><rect style="fill: #000000;fill-opacity: 0;stroke-opacity:0;stroke-width: 1;stroke:%stroke%;" rx="4" height="35" width="79" y="294" x="842"/><text style="font-weight:Normal; font-size: 12px; text-anchor: start; font-family: arial,helvetica,sans-serif; fill: #333333;" class="" y="315" x="842"><tspan dy="17" font-weight="bold" x="842">.4money.trade</tspan></text></g><text style="font-weight:Normal; font-size: 16px; text-anchor: end; font-family: Arial; fill: #ccc;" y="613" x="1373">www.sketchboard.io</text></svg>