<svg height="487" width="654" viewBox="733 141 654 487" style="background-color:transparent;" preserveAspectRatio="xMinYMin meet" xmlns:xlink="http://www.w3.org/1999/xlink" xmlns="http://www.w3.org/2000/svg"><defs><style type="text/css">.svg-txt-center tspan {text-anchor: middle;}.svg-txt-right tspan {text-anchor: end;}</style></defs><g transform="translate(0,0)"><g transform="matrix(1,0,0,1,748,204)"><path style="fill:none;stroke:#333333;stroke-width:3.0;;" d="m0.7042881066666667,5.320701752509506c1.29926048,49.04309565956133 -1.8819501866666668,103.64334601806218 1.3248241066666666,150.50022052481313c-1.3771757066666666,12.536162746013325 10.321140479999999,9.350683921055706 16.555117786666667,8.61797084320468c52.11680898666666,-0.03075429188729971 109.96681005333332,-4.8534552834658715 157.68219992,-2.3548117421727635c5.772291466666667,-0.7861684759149316 15.971648,3.431687540061562 17.0643088,-6.685539179921201c4.371871466666667,-47.53732114112136 0.6082010666666666,-98.03559892369528 0.85456,-140.5112059112721c0.9958890666666665,-8.695043635110697 -1.0726034666666666,-15.218401483509723 -9.587287733333334,-13.818645252623723c-59.54191226666667,-2.0148499949958856 -125.88072559999999,4.199706227944653 -179.83631773333335,0.7358915497703072c-3.4777704266666665,-0.703222248367551 -4.28368192,1.2504520701370514 -4.0574051466666665,3.516119168201643z"/><path style="fill:none;stroke:#333333;stroke-width:3.0;;" d="m0.5110752266666667,45.87327774437457c70.56143602666667,3.977802915068342 130.95372696,-4.518502998266513 195.14368776,0"/><path style="fill:none;stroke:#333333;stroke-width:3.0;;" d="m22.89878192,96.60061634641609c52.613782666666665,-1.902549271423911 99.74579813333334,0.4980134431131548 147.54336426666666,-0.5622328433376141c9.397873333333333,1.4393642712367343 4.863374133333333,-14.320006791843367 5.505038933333334,-20.74633801988352c-0.5626637333333333,-11.32515701840368 -3.2662877333333333,-6.890071073699522 -10.102022933333332,-7.291414582828783c-27.814294666666665,-1.3426626317972867 -93.56644080000001,4.44539021775918 -137.65498394666668,2.979567743862702c-1.93277952,-0.3164362991558709 -6.636503813333333,-0.9075845179586575 -6.619040213333332,2.1780379747318976c0.16900688000000003,7.60182684542941 -1.9453182933333333,17.721399769123163 1.3276438933333334,23.442379727455318z"/><path style="fill:none;stroke:#333333;stroke-width:3.0;;" d="m26.78785050666667,78.2215661654658c-4.820089493333334,11.182403204772168 5.096167253333333,12.027543828017384 11.909698266666668,11.312887007104313c4.816502693333334,-3.638755870284195 1.4956485599999998,-16.759028223967338 -5.90538984,-12.297563340242322c-2.023193013333333,0.0013157764054875648 -4.072638266666666,0.2056574374504841 -6.004308426666666,0.9846763331380073z"/></g></g><g transform="translate(0,0)"><g transform="matrix(1,0,0,1,825,151)"><path style="fill:none;stroke:#333333;stroke-width:3.0;;" d="m14.190753931198135,3.89417399977717c5.29719756786198,-6.400184924071554 14.67927161746068,-4.132183734995935 16.737702323112334,1.198708883139804c2.057068408692256,5.329141115587113 -1.2347919741327575,13.993337695151306 -9.877620587158376,13.19387408740095c-8.642833621470322,-0.7995609134475014 -11.935374151086096,-8.263589024414703 -6.8600817359539565,-14.392582970540754z"/><path style="fill:none;stroke:#333333;stroke-width:3.0;;" d="m9.800449469475254,50.00160284106687l-9.739440602850882,-0.4001210266637612c0,0 -0.13614154731309988,-17.856179260447508 0,-20.654496498968047c0.13681969072597708,-2.7984145442176818 2.88139830558026,-3.9979991786317983 5.76211546268082,-3.9979991786317983c2.8807181587895014,0 29.355127475633452,-1.3336718850811067 31.55176120443824,-0.9342319982973665c2.1959325465462722,0.4006075551494905 5.212098082212945,1.8679774681090038 5.350291088476668,5.730916339102354c0.13817297248490934,3.8643011507533918 0.2743225333095351,20.38953308563988 0.2743225333095351,20.38953308563988l-9.053985862395242,0.534986722907918"/><path style="fill:none;stroke:#333333;stroke-width:3.0;;" d="m10.075314918190667,36.00836245161272l0.1361395439352184,17.591605069907928l24.008922276346038,0.39953719248088604l-1.2347819572433503,-18.92089819861747"/></g><text style="font-weight:bold; font-size: 12px; text-anchor: middle; font-family: arial,helvetica,sans-serif; fill: #333333;" class="svg-txt-center" y="220" x="846">Seller</text></g><g transform="translate(0,0)"><g transform="matrix(1,0,0,1,791,325)"><path style="fill:none;stroke:#333333;stroke-width:2px;;stroke-width: 2px;" d="m0,3.2243991203686946c-0.4875417562797071,-2.8178005779135598 -0.11373658269102883,-3.2706097025614946 2.662715359824444,-3.2539769092817488c31.714754092845045,-0.5754436574825373 72.82203247265953,0.4398820832388055 105.47235257577357,0.06631572242883128c3.138770984943914,0.3269356497713776 2.8580924966978767,-0.3009810232977155 3.0716259717115557,2.066725108663827c-0.06873005590664402,5.336038516239573 0.6351678541217721,15.265582699333518 0.014504226115384534,20.52112883773225c0.08144079537961724,2.0234949276847987 0.09383452631773323,1.458421630088251 -2.92700494107663,1.7081146165952477c-30.472966523069324,1.1233060357807638 -77.45739206549898,-0.7195227156769507 -106.3924068807479,-0.06744683855213006c-2.229503655320059,-0.1093089076486925 -2.127361768355999,-1.3665534558073753 -1.913250729847306,-3.042741870966911c0.10722705126978291,-2.61161785828279 -0.7015225173083217,-15.426635681067085 0.011464418246890769,-17.998118666619366z"/><path style="fill:none;stroke:#333333;stroke-width:4px;;stroke-width: 4px; stroke-linecap: round;" d="m112.90714940119697,1.8137069998388156c0.5150303045762292,6.14670764638539 -0.2284241909866293,16.723296932989104 -0.16390644026918377,22.518949224840583c0.39119287459646257,1.6117471137350277 0.07546974420936162,1.5903815869616063 -1.5942011811355392,1.4636570818589485c-34.93786237580898,0.6715777554284259 -76.48477079731303,-1.2026206165154414 -109.90829208727449,-0.2573845761454282"/></g><text style="font-weight:bold; font-size: 12px; text-anchor: middle; font-family: arial,helvetica,sans-serif; fill: #333333;" class="svg-txt-center" y="341" x="846">Start Trading!</text></g><g transform="translate(0,0)"><g transform="matrix(1,0,0,1,960,211)"><path style="fill:none;stroke:#333333;stroke-width:3.0;;" d="m3.7850130969866616,9.828278671251006c58.372397666340845,-3.4063356165453635 127.88450630602372,-19.49169738449819 183.40956889913684,1.6730815418947664c11.380604612269174,10.653119227495868 5.421524871415153,36.01166313597056 7.489521307680665,53.87263080616316c0.9796175711050331,84.66474459037619 3.2394263695170538,151.4437200050244 2.30305248765485,236.6598986639644c0.9302464850140097,18.594000869475437 1.3452120161589392,51.251782712798075 -14.387500411530267,48.425148490253335c-60.214715452474564,4.405057094650824 -119.60260494241342,0.7916571742103949 -177.94695320764177,2.769509644879486c-5.855203803745108,-17.2611350244244 -3.3583102887710363,-45.92641524277508 -3.979620048911908,-71.83786803679294c2.6688332386940052,-91.85912303799522 1.720597875770939,-168.77055812587705 2.406348806142987,-252.38673242424707c-0.8935856072499835,-7.455470213522809 -1.4460242548437545,-14.445316126394593 0.7055821674685683,-19.175668686115134z"/><path style="fill:none;stroke:#333333;stroke-width:3.0;;" d="m3.2152893940947758,51.27616635352267c64.41651573912858,6.043849141776642 133.16758512973374,-15.399399810592952 189.814416760697,0.00004916056597698606"/><path style="fill:none;stroke:#333333;stroke-width:3.0;;" d="m21.920513816434095,71.90334991067428c-0.27670578942503604,8.141702553995557 -5.240083542447513,27.85290186558099 5.21135101938909,26.85351671983484c48.99834991653503,4.60297753327417 100.08717719155561,1.8057413291836633 145.78190797632274,-3.2369774667546465c4.373243194413297,-5.464270649190966 2.4340462959500266,-24.2349300125047 2.4340462959500266,-24.2349300125047c-44.403692408985634,-8.960791324021109 -116.18380731043149,3.1251371791570035 -153.42730529166187,0.6183907594245076z"/><path style="fill:none;stroke:#333333;stroke-width:3.0;;" d="m22.789072319665607,108.00089655540664c48.78614739933625,7.381139437765606 110.53180123459812,-8.450037623803214 149.69352634061872,3.5047304893483013c0,0 1.366699306457674,28.796710991490155 -12.021165990885791,22.27907689511031c-46.21620123747948,-5.480788599359233 -95.33113729945042,5.304670871746681 -138.15903298453375,1.6986696164857875c-8.221703829709805,-5.76415010165058 6.026315500863934,-18.5430213625573 0.4866726348008227,-27.4824770009444z"/><path style="fill:none;stroke:#333333;stroke-width:3.0;;" d="m20.891980573868647,153.23953089988072c-0.12586004336831144,7.334707283200342 0.234807643409006,20.633033664502886 0.234807643409006,20.633033664502886c-1.0585078055255324,8.35712415410671 13.889587315619412,3.5999053450797462 19.055169164632293,2.996877262523047c33.99782001087495,-0.8196049559683115 73.22028086808679,-2.1978214231331155 105.60392512209812,-0.24408221007573577c11.530746535714956,0.6311970868615125 23.23537865766245,4.242286460701023 23.672183390411586,-6.463729535786081c0.5690405809459725,-8.26595588450239 5.216898797616509,-23.666240585282925 -6.898538021805349,-19.152464898974c-46.35750397695845,2.4806421591987164 -95.3265624524793,-3.5930720264089455 -138.38011608702942,-3.067250612719102c0,0 -3.639653027162273,0.2788387302214649 -3.28743121171625,5.2976163305289825z"/><path style="fill:none;stroke:#333333;stroke-width:3.0;;" d="m20.04996032320262,194.8958348016118c-0.38853078190457846,3.6930646176061352 -0.43754995669013136,6.335445038869135 0.13765942243409063,13.551060850990229c-1.7195628425195548,12.256515667118256 12.52205998256063,7.462377273042575 20.129409475578868,7.807115741956189c37.7333171171154,0.7503377185067381 72.93310054215773,6.140105529959581 107.80219084338285,2.2305377797908c6.7475887724234855,-2.2343723039370045 21.16224845647007,5.731605806973815 20.168989147111795,-6.778430898887756c-0.4627426660288213,-7.090059726615872 1.2683711475761807,-19.362110132582853 -2.4267182605302273,-23.012380477506024c-15.956590119963595,4.49155511048733 -130.0226986973981,0.8962708586094212 -140.0048698837222,0.05211019993560522c0,0 -6.3572777333265265,-0.8890196751278158 -5.8065572409300525,6.149937643154979z"/><path style="fill:none;stroke:#333333;stroke-width:3.0;;" d="m23.94876497584645,245.2559431687193c0.9053435849857073,6.8578989537895545 0.004140133005536561,6.5647790791517755 0.26107678732913553,11.71493829203279c0.15028682810097713,3.021555866643494 5.321809767976805,1.1539459651777937 9.193165338793932,-0.5773416868337242c0.16519130692090875,-5.583706244232053 0.3737091057447576,-6.5121526932734115 0.10101924533509207,-10.909442418499873c-3.310595255882227,-0.6948600198017094 -5.724872416730817,-1.2992400179227759 -9.55534417411827,-0.2281050261332153z"/><path style="fill:none;stroke:#333333;stroke-width:3.0;;" d="m26.179510040559606,247.2077159591376c2.4165128326715792,5.632965131340993 2.179635122759805,12.43634501746207 4.140795426817446,1.741562210300708c1.0319488522950153,-2.237518580159532 1.7882683497464342,-6.362974955816247 3.725581487692184,-7.596905161838598"/><path style="fill:none;stroke:#333333;stroke-width:3.0;;" d="m42.26446498435986,254.17834009071237c3.0579229385543307,-6.5361676297531695 8.113004637649443,-8.545064997836727 11.80391251142026,-1.9138454137670557c5.199758646973588,-4.540469873634432 10.396743404833465,-3.3525785376495296 15.831061287235727,-1.5626423304274673c6.90772911707764,-4.779832669376377 12.561846660743836,4.560748607099939 19.43703433239796,-2.6930403845022846c1.7271599865847145,12.586014360579005 12.629061720088723,-7.453307148619822 17.58896176138655,2.2545527162705574c8.102861311785878,0.43487436663241863 17.322523501815244,-3.736006371987032 24.523270532359735,-2.9765002079255862c-1.3784572841933977,9.441409597295115 10.314416860018369,-6.557159191425343 14.775472275479096,-2.433054731332994c5.231782575771413,3.5131615264133544 23.320292785606004,2.0096839371391897 20.493244364105422,2.6327449503315115"/><path style="fill:none;stroke:#333333;stroke-width:3.0;;" d="m22.539857013397334,265.8890014135052c0.044299423159241194,6.906125469012977 0.20224549732046096,11.699772257428888 7.282887269374336,9.035908668833944c5.122131153119777,0.6086323870780759 5.559598307149797,-2.2763800075643394 5.343110752290291,-5.7798323221972385c-0.21646685419447903,-3.5034523146329 0.08714979976654459,-6.649458154047134 -5.624908905312137,-6.144579141463487c-2.405769187522212,0.47058951781469904 -5.043510027344637,1.0397213901302664 -7.00108911635249,2.888502794826781z"/><path style="fill:none;stroke:#333333;stroke-width:3.0;;" d="m26.179530741224635,266.1678401437266c1.3062326639118123,4.436470696310118 1.6417904440105506,10.815152452956013 4.924025788804853,2.262246344845956c1.8615694046094589,-3.4814775416411865 1.9687988494528559,-5.961062748671398 3.88160240000583,-9.232895056703727"/><path style="fill:none;stroke:#333333;stroke-width:3.0;;" d="m42.26446498435986,268.1196129341449c6.8647752371451976,-8.055179957876062 9.575154710549763,11.776143196674136 17.2702957239504,2.278543072467327c6.168446266944004,-3.8640204857911042 13.577483388997038,0.8272494239777328 20.15100026920274,-3.03025728682142c5.773291272230567,4.70491196682745 12.189814308866321,-3.068676269132435 17.035902093841948,1.6874610074430347c6.44631129361059,-0.19860868654702366 16.547428501183717,-13.566054823613209 17.39677678726954,0.17943606581599908c8.727628082986373,-2.672417527074939 16.83156582935369,-7.259565358104519 25.93638072980947,-5.567556998308613c3.8214255667703556,-3.327629550416209 4.689963369336843,-1.3744556838675646 6.222744111311616,0.6180466354626687c5.349776366429205,-3.0267668866370543 20.990971154031026,0.7993999633517702 17.622062124765815,3.834204602526062"/></g></g><g transform="translate(0,0)"><g transform="matrix(1,0,0,1,995,283)"><path style="fill:#333333;stroke:none;stroke-width:3.0;;stroke: none;" d="m12.89875,3.09771c-0.4685,0 -0.9445,0.030240000000000003 -1.42075,0.09018000000000001c-0.2235,0.030780000000000002 -0.44575,0.06669 -0.66,0.10638000000000002c-0.138,0.02295 -0.265,0.06696 -0.3795,0.13041c-4.48675,0.64503 -7.9215,4.27707 -8.56175,9.07092c-0.7845,5.87331 3.33525,11.40777 9.18325,12.337110000000001c0.51425,0.08181000000000001 1.0435,0.12312000000000001 1.573,0.12312000000000001c0.00025,0 0,0 0.0005,0c5.3685,0 10.032,-3.9422700000000006 10.8475,-9.169740000000001c0.47,-3.0123900000000003 -0.54525,-6.318 -2.78525,-9.06957c-1.9,-2.33361 -4.66925,-3.6188100000000003 -7.797,-3.6188100000000003zm0.62925,2.69595c2.087,0.15903 3.89875,1.0929600000000002 5.38825,2.7782999999999998c1.75225,1.9826100000000002 2.534,4.76982 2.04,7.2738000000000005c-0.62825,3.1873500000000003 -3.7315,6.41385 -8.44625,6.41385c-0.54725,0 -1.086,-0.051570000000000005 -1.601,-0.15363c-4.334,-0.85887 -7.2645,-5.177250000000001 -6.5325,-9.626850000000001c0.628,-3.81591 3.73725,-6.480810000000001 7.562,-6.480810000000001c0.258,0 0.52025,0.01242 0.779,0.03726000000000001c0.3185,0.030239460000000003 0.5915,-0.05697054 0.8105,-0.24192027000000002z"/></g></g><g transform="translate(0,0)"><g transform="matrix(1,0,0,1,995,320)"><path style="fill:#333333;stroke:none;stroke-width:3.0;;stroke: none;" d="m12.89875,3.09771c-0.4685,0 -0.9445,0.030240000000000003 -1.42075,0.09018000000000001c-0.2235,0.030780000000000002 -0.44575,0.06669 -0.66,0.10638000000000002c-0.138,0.02295 -0.265,0.06696 -0.3795,0.13041c-4.48675,0.64503 -7.9215,4.27707 -8.56175,9.07092c-0.7845,5.87331 3.33525,11.40777 9.18325,12.337110000000001c0.51425,0.08181000000000001 1.0435,0.12312000000000001 1.573,0.12312000000000001c0.00025,0 0,0 0.0005,0c5.3685,0 10.032,-3.9422700000000006 10.8475,-9.169740000000001c0.47,-3.0123900000000003 -0.54525,-6.318 -2.78525,-9.06957c-1.9,-2.33361 -4.66925,-3.6188100000000003 -7.797,-3.6188100000000003zm0.62925,2.69595c2.087,0.15903 3.89875,1.0929600000000002 5.38825,2.7782999999999998c1.75225,1.9826100000000002 2.534,4.76982 2.04,7.2738000000000005c-0.62825,3.1873500000000003 -3.7315,6.41385 -8.44625,6.41385c-0.54725,0 -1.086,-0.051570000000000005 -1.601,-0.15363c-4.334,-0.85887 -7.2645,-5.177250000000001 -6.5325,-9.626850000000001c0.628,-3.81591 3.73725,-6.480810000000001 7.562,-6.480810000000001c0.258,0 0.52025,0.01242 0.779,0.03726000000000001c0.3185,0.030239460000000003 0.5915,-0.05697054 0.8105,-0.24192027000000002z"/></g></g><g transform="translate(0,0)"><g transform="matrix(1,0,0,1,995,360)"><path style="fill:#333333;stroke:none;stroke-width:3.0;;stroke: none;" d="m12.89875,3.09771c-0.4685,0 -0.9445,0.030240000000000003 -1.42075,0.09018000000000001c-0.2235,0.030780000000000002 -0.44575,0.06669 -0.66,0.10638000000000002c-0.138,0.02295 -0.265,0.06696 -0.3795,0.13041c-4.48675,0.64503 -7.9215,4.27707 -8.56175,9.07092c-0.7845,5.87331 3.33525,11.40777 9.18325,12.337110000000001c0.51425,0.08181000000000001 1.0435,0.12312000000000001 1.573,0.12312000000000001c0.00025,0 0,0 0.0005,0c5.3685,0 10.032,-3.9422700000000006 10.8475,-9.169740000000001c0.47,-3.0123900000000003 -0.54525,-6.318 -2.78525,-9.06957c-1.9,-2.33361 -4.66925,-3.6188100000000003 -7.797,-3.6188100000000003zm0.62925,2.69595c2.087,0.15903 3.89875,1.0929600000000002 5.38825,2.7782999999999998c1.75225,1.9826100000000002 2.534,4.76982 2.04,7.2738000000000005c-0.62825,3.1873500000000003 -3.7315,6.41385 -8.44625,6.41385c-0.54725,0 -1.086,-0.051570000000000005 -1.601,-0.15363c-4.334,-0.85887 -7.2645,-5.177250000000001 -6.5325,-9.626850000000001c0.628,-3.81591 3.73725,-6.480810000000001 7.562,-6.480810000000001c0.258,0 0.52025,0.01242 0.779,0.03726000000000001c0.3185,0.030239460000000003 0.5915,-0.05697054 0.8105,-0.24192027000000002z"/></g></g><g transform="translate(0,0)"><g transform="matrix(1,0,0,1,995,400)"><path style="fill:#333333;stroke:none;stroke-width:3.0;;stroke: none;" d="m12.89875,3.09771c-0.4685,0 -0.9445,0.030240000000000003 -1.42075,0.09018000000000001c-0.2235,0.030780000000000002 -0.44575,0.06669 -0.66,0.10638000000000002c-0.138,0.02295 -0.265,0.06696 -0.3795,0.13041c-4.48675,0.64503 -7.9215,4.27707 -8.56175,9.07092c-0.7845,5.87331 3.33525,11.40777 9.18325,12.337110000000001c0.51425,0.08181000000000001 1.0435,0.12312000000000001 1.573,0.12312000000000001c0.00025,0 0,0 0.0005,0c5.3685,0 10.032,-3.9422700000000006 10.8475,-9.169740000000001c0.47,-3.0123900000000003 -0.54525,-6.318 -2.78525,-9.06957c-1.9,-2.33361 -4.66925,-3.6188100000000003 -7.797,-3.6188100000000003zm0.62925,2.69595c2.087,0.15903 3.89875,1.0929600000000002 5.38825,2.7782999999999998c1.75225,1.9826100000000002 2.534,4.76982 2.04,7.2738000000000005c-0.62825,3.1873500000000003 -3.7315,6.41385 -8.44625,6.41385c-0.54725,0 -1.086,-0.051570000000000005 -1.601,-0.15363c-4.334,-0.85887 -7.2645,-5.177250000000001 -6.5325,-9.626850000000001c0.628,-3.81591 3.73725,-6.480810000000001 7.562,-6.480810000000001c0.258,0 0.52025,0.01242 0.779,0.03726000000000001c0.3185,0.030239460000000003 0.5915,-0.05697054 0.8105,-0.24192027000000002z"/></g></g><g transform="translate(0,0)"><g transform="matrix(1,0,0,1,1005,511)"><path style="fill:none;stroke:#333333;stroke-width:2px;;stroke-width: 2px;" d="m0,3.2243991203686946c-0.4875417562797071,-2.8178005779135598 -0.11373658269102883,-3.2706097025614946 2.662715359824444,-3.2539769092817488c31.714754092845045,-0.5754436574825373 72.82203247265953,0.4398820832388055 105.47235257577357,0.06631572242883128c3.138770984943914,0.3269356497713776 2.8580924966978767,-0.3009810232977155 3.0716259717115557,2.066725108663827c-0.06873005590664402,5.336038516239573 0.6351678541217721,15.265582699333518 0.014504226115384534,20.52112883773225c0.08144079537961724,2.0234949276847987 0.09383452631773323,1.458421630088251 -2.92700494107663,1.7081146165952477c-30.472966523069324,1.1233060357807638 -77.45739206549898,-0.7195227156769507 -106.3924068807479,-0.06744683855213006c-2.229503655320059,-0.1093089076486925 -2.127361768355999,-1.3665534558073753 -1.913250729847306,-3.042741870966911c0.10722705126978291,-2.61161785828279 -0.7015225173083217,-15.426635681067085 0.011464418246890769,-17.998118666619366z"/><path style="fill:none;stroke:#333333;stroke-width:4px;;stroke-width: 4px; stroke-linecap: round;" d="m112.90714940119697,1.8137069998388156c0.5150303045762292,6.14670764638539 -0.2284241909866293,16.723296932989104 -0.16390644026918377,22.518949224840583c0.39119287459646257,1.6117471137350277 0.07546974420936162,1.5903815869616063 -1.5942011811355392,1.4636570818589485c-34.93786237580898,0.6715777554284259 -76.48477079731303,-1.2026206165154414 -109.90829208727449,-0.2573845761454282"/></g><text style="font-weight:bold; font-size: 12px; text-anchor: middle; font-family: arial,helvetica,sans-serif; fill: #333333;" class="svg-txt-center" y="527" x="1060">Start Trading!</text></g><g transform="translate(0,0)"><g transform="matrix(1,0,0,1,826,377)"><path style="fill:none;stroke:#333333;stroke-width:3.0;;" d="m14.190753931198135,3.89417399977717c5.29719756786198,-6.400184924071554 14.67927161746068,-4.132183734995935 16.737702323112334,1.198708883139804c2.057068408692256,5.329141115587113 -1.2347919741327575,13.993337695151306 -9.877620587158376,13.19387408740095c-8.642833621470322,-0.7995609134475014 -11.935374151086096,-8.263589024414703 -6.8600817359539565,-14.392582970540754z"/><path style="fill:none;stroke:#333333;stroke-width:3.0;;" d="m9.800449469475254,50.00160284106687l-9.739440602850882,-0.4001210266637612c0,0 -0.13614154731309988,-17.856179260447508 0,-20.654496498968047c0.13681969072597708,-2.7984145442176818 2.88139830558026,-3.9979991786317983 5.76211546268082,-3.9979991786317983c2.8807181587895014,0 29.355127475633452,-1.3336718850811067 31.55176120443824,-0.9342319982973665c2.1959325465462722,0.4006075551494905 5.212098082212945,1.8679774681090038 5.350291088476668,5.730916339102354c0.13817297248490934,3.8643011507533918 0.2743225333095351,20.38953308563988 0.2743225333095351,20.38953308563988l-9.053985862395242,0.534986722907918"/><path style="fill:none;stroke:#333333;stroke-width:3.0;;" d="m10.075314918190667,36.00836245161272l0.1361395439352184,17.591605069907928l24.008922276346038,0.39953719248088604l-1.2347819572433503,-18.92089819861747"/></g></g><g transform="translate(0,0)"><g transform="matrix(1,0,0,1,749,430)"><path style="fill:none;stroke:#333333;stroke-width:3.0;;" d="m0.7042881066666667,5.320701752509506c1.29926048,49.04309565956133 -1.8819501866666668,103.64334601806218 1.3248241066666666,150.50022052481313c-1.3771757066666666,12.536162746013325 10.321140479999999,9.350683921055706 16.555117786666667,8.61797084320468c52.11680898666666,-0.03075429188729971 109.96681005333332,-4.8534552834658715 157.68219992,-2.3548117421727635c5.772291466666667,-0.7861684759149316 15.971648,3.431687540061562 17.0643088,-6.685539179921201c4.371871466666667,-47.53732114112136 0.6082010666666666,-98.03559892369528 0.85456,-140.5112059112721c0.9958890666666665,-8.695043635110697 -1.0726034666666666,-15.218401483509723 -9.587287733333334,-13.818645252623723c-59.54191226666667,-2.0148499949958856 -125.88072559999999,4.199706227944653 -179.83631773333335,0.7358915497703072c-3.4777704266666665,-0.703222248367551 -4.28368192,1.2504520701370514 -4.0574051466666665,3.516119168201643z"/><path style="fill:none;stroke:#333333;stroke-width:3.0;;" d="m0.5110752266666667,45.87327774437457c70.56143602666667,3.977802915068342 130.95372696,-4.518502998266513 195.14368776,0"/><path style="fill:none;stroke:#333333;stroke-width:3.0;;" d="m22.89878192,96.60061634641609c52.613782666666665,-1.902549271423911 99.74579813333334,0.4980134431131548 147.54336426666666,-0.5622328433376141c9.397873333333333,1.4393642712367343 4.863374133333333,-14.320006791843367 5.505038933333334,-20.74633801988352c-0.5626637333333333,-11.32515701840368 -3.2662877333333333,-6.890071073699522 -10.102022933333332,-7.291414582828783c-27.814294666666665,-1.3426626317972867 -93.56644080000001,4.44539021775918 -137.65498394666668,2.979567743862702c-1.93277952,-0.3164362991558709 -6.636503813333333,-0.9075845179586575 -6.619040213333332,2.1780379747318976c0.16900688000000003,7.60182684542941 -1.9453182933333333,17.721399769123163 1.3276438933333334,23.442379727455318z"/><path style="fill:none;stroke:#333333;stroke-width:3.0;;" d="m26.78785050666667,78.2215661654658c-4.820089493333334,11.182403204772168 5.096167253333333,12.027543828017384 11.909698266666668,11.312887007104313c4.816502693333334,-3.638755870284195 1.4956485599999998,-16.759028223967338 -5.90538984,-12.297563340242322c-2.023193013333333,0.0013157764054875648 -4.072638266666666,0.2056574374504841 -6.004308426666666,0.9846763331380073z"/></g></g><g transform="translate(0,0)"><g transform="matrix(1,0,0,1,792,551)"><path style="fill:none;stroke:#333333;stroke-width:2px;;stroke-width: 2px;" d="m0,3.2243991203686946c-0.4875417562797071,-2.8178005779135598 -0.11373658269102883,-3.2706097025614946 2.662715359824444,-3.2539769092817488c31.714754092845045,-0.5754436574825373 72.82203247265953,0.4398820832388055 105.47235257577357,0.06631572242883128c3.138770984943914,0.3269356497713776 2.8580924966978767,-0.3009810232977155 3.0716259717115557,2.066725108663827c-0.06873005590664402,5.336038516239573 0.6351678541217721,15.265582699333518 0.014504226115384534,20.52112883773225c0.08144079537961724,2.0234949276847987 0.09383452631773323,1.458421630088251 -2.92700494107663,1.7081146165952477c-30.472966523069324,1.1233060357807638 -77.45739206549898,-0.7195227156769507 -106.3924068807479,-0.06744683855213006c-2.229503655320059,-0.1093089076486925 -2.127361768355999,-1.3665534558073753 -1.913250729847306,-3.042741870966911c0.10722705126978291,-2.61161785828279 -0.7015225173083217,-15.426635681067085 0.011464418246890769,-17.998118666619366z"/><path style="fill:none;stroke:#333333;stroke-width:4px;;stroke-width: 4px; stroke-linecap: round;" d="m112.90714940119697,1.8137069998388156c0.5150303045762292,6.14670764638539 -0.2284241909866293,16.723296932989104 -0.16390644026918377,22.518949224840583c0.39119287459646257,1.6117471137350277 0.07546974420936162,1.5903815869616063 -1.5942011811355392,1.4636570818589485c-34.93786237580898,0.6715777554284259 -76.48477079731303,-1.2026206165154414 -109.90829208727449,-0.2573845761454282"/></g><text style="font-weight:bold; font-size: 12px; text-anchor: middle; font-family: arial,helvetica,sans-serif; fill: #333333;" class="svg-txt-center" y="567" x="847">Start Trading!</text></g><g transform="translate(0,0)"><rect style="fill: #000000;fill-opacity: 0;stroke-opacity:0;stroke-width: 1;stroke:%stroke%;" rx="4" height="50" width="100" y="201" x="797"/><text style="font-weight:Normal; font-size: 12px; text-anchor: middle; font-family: arial,helvetica,sans-serif; fill: #333333;" class="svg-txt-center" y="222" x="847"/></g><g transform="translate(0,0)"><rect style="fill: #000000;fill-opacity: 0;stroke-opacity:0;stroke-width: 1;stroke:%stroke%;" rx="4" height="50" width="100" y="425" x="796"/><text style="font-weight:Normal; font-size: 12px; text-anchor: middle; font-family: arial,helvetica,sans-serif; fill: #333333;" class="svg-txt-center" y="446" x="846"/></g><g transform="translate(0,0)"><g transform="matrix(1,0,0,1,1180,278)"><path style="fill:none;stroke:#333333;stroke-width:3.0;;" d="m3.5299318583475854,5.655281659442741c56.68389113269801,-1.922405884701934 124.18526357435394,-11.000313612637528 178.10418428201172,0.9441787918624163c11.051410233073037,6.012193415475374 5.2646956021329645,20.323483778051962 7.272854867888964,30.403456819912723c0.9512935601104143,47.781189211226895 3.1457046544032674,85.46844645927274 2.236447236667952,133.5608556651174c0.9033153460337727,10.49366871953591 1.3062921951444433,28.924340408165254 -13.9713161628177,27.3290981201578c-58.47293650445964,2.4860331675217093 -116.14293049568182,0.44677369028243075 -172.79960051612545,1.563002251719552c-5.68581985941321,-9.741452660837783 -3.2611334121190367,-25.91893833869232 -3.864514659190842,-40.54224256818925c2.591646617367574,-51.841449102746225 1.6708663984272414,-95.2470126502559 2.336759845764596,-142.43643621593841c-0.8677231395241973,-4.207545255655384 -1.4041757816874159,-8.152318779158474 0.6851851058008074,-10.821912864642226z"/><path style="fill:none;stroke:#333333;stroke-width:3.0;;" d="m3.103006051331712,45.99504268645858c62.468216890217526,5.422191930603387 129.1398874214125,-13.815450953593345 184.0734168721086,0.00004410401680971676"/><path style="fill:none;stroke:#333333;stroke-width:3.0;;" d="m21.242484767115684,64.500558891614c-0.26833673119768525,7.304264691932836 -5.081595480545915,24.988012803881222 5.053731982161657,24.09142224615649c47.51637859837913,4.129525249918995 97.06000737531211,1.620006693446111 141.37268589649824,-2.9040289868357996c4.240973005876725,-4.902227624425232 2.360427759737968,-21.74217768677012 2.360427759737968,-21.74217768677012c-43.06068802858451,-8.039103768007932 -112.66978958613039,2.8036923485936946 -148.7868456383979,0.5547844274494271z"/><path style="fill:none;stroke:#333333;stroke-width:3.0;;" d="m30.507820664277865,76.52913560416168c-0.8070377248155414,-8.45196146936369 6.756015077254147,-4.554710023973069 4.296418958713413,1.926000362071926c11.587662129570663,4.852676761539515 -13.858436875054958,7.502820975610181 -7.123520167254597,-0.982064142301963c0.8873761401857169,-0.5834520383757429 1.829997487542529,-0.7431085792269176 2.8271012085411846,-0.9439362197699629z"/><path style="fill:none;stroke:#333333;stroke-width:3.0;;" d="m22.084773430809296,96.88519019862763c47.310594216580114,6.621931447869708 107.18873030562169,-7.58088508536338 145.1659960681034,3.144241514389922c0,0 1.3253630333757445,25.83474377060257 -11.657581844896582,19.987499377995537c-44.81837692738057,-4.917046574073297 -92.44781548462147,4.759043933852487 -133.9803672830151,1.523948144834548c-7.973035674909542,-5.171262126964504 5.844047593033331,-16.63572641250749 0.47195305980830254,-24.655689037220007z"/><path style="fill:none;stroke:#333333;stroke-width:3.0;;" d="m27.980914524063916,110.8669573996104c-1.4736538565490294,-10.4831940155436 10.581344182521304,-10.163307581622725 9.068183578983643,0.27792146192643014"/><path style="fill:none;stroke:#333333;stroke-width:3.0;;" d="m27.725124396965775,118.3925360478944c2.2926760976004514,1.728282054713966 8.237819207826236,1.6380011323044754 9.33238494947012,0.00002205200840485838c-0.1298824456384397,-2.3752218252872956 0.6735017080633157,-5.073285053621719 0.5740523053287205,-7.0952778082799925c-1.1755063940108368,-2.026226740272007 -8.962872402813742,-1.433799534475487 -9.554469879315262,-0.3145498478868999c0.7034328868031786,1.844871023150452 0.17866364237745183,4.658376515484308 -0.35196737548358015,7.409805604158488z"/></g></g><g transform="translate(0,0)"><g transform="matrix(1,0,0,1,1221,424)"><path style="fill:none;stroke:#333333;stroke-width:2px;;stroke-width: 2px;" d="m0,3.2243991203686946c-0.4875417562797071,-2.8178005779135598 -0.11373658269102883,-3.2706097025614946 2.662715359824444,-3.2539769092817488c31.714754092845045,-0.5754436574825373 72.82203247265953,0.4398820832388055 105.47235257577357,0.06631572242883128c3.138770984943914,0.3269356497713776 2.8580924966978767,-0.3009810232977155 3.0716259717115557,2.066725108663827c-0.06873005590664402,5.336038516239573 0.6351678541217721,15.265582699333518 0.014504226115384534,20.52112883773225c0.08144079537961724,2.0234949276847987 0.09383452631773323,1.458421630088251 -2.92700494107663,1.7081146165952477c-30.472966523069324,1.1233060357807638 -77.45739206549898,-0.7195227156769507 -106.3924068807479,-0.06744683855213006c-2.229503655320059,-0.1093089076486925 -2.127361768355999,-1.3665534558073753 -1.913250729847306,-3.042741870966911c0.10722705126978291,-2.61161785828279 -0.7015225173083217,-15.426635681067085 0.011464418246890769,-17.998118666619366z"/><path style="fill:none;stroke:#333333;stroke-width:4px;;stroke-width: 4px; stroke-linecap: round;" d="m112.90714940119697,1.8137069998388156c0.5150303045762292,6.14670764638539 -0.2284241909866293,16.723296932989104 -0.16390644026918377,22.518949224840583c0.39119287459646257,1.6117471137350277 0.07546974420936162,1.5903815869616063 -1.5942011811355392,1.4636570818589485c-34.93786237580898,0.6715777554284259 -76.48477079731303,-1.2026206165154414 -109.90829208727449,-0.2573845761454282"/></g></g><text style="font-weight:Normal; font-size: 16px; text-anchor: end; font-family: Arial; fill: #ccc;" y="613" x="1372">www.sketchboard.io</text></svg>